Coordinates
version=1
nRows=13
nColumns=22
inDegrees=yes

Units are S.I. units (second, meters, Newtons, ...)
If the header above contains a line with 'inDegrees', this indicates whether rotational values are in degrees (yes) or radians (no).

endheader
time	pelvis_tilt	pelvis_list	pelvis_rotation	pelvis_tx	pelvis_ty	pelvis_tz	hip_flexion_r	hip_adduction_r	hip_rotation_r	knee_angle_r	ankle_angle_r	subtalar_angle_r	hip_flexion_l	hip_adduction_l	hip_rotation_l	knee_angle_l	ankle_angle_l	subtalar_angle_l	lumbar_extension	lumbar_bending	lumbar_rotation
      4.18000000	      2.34645066	      0.25960094	    -29.52166997	      0.75238838	      0.87910532	      0.49447352	    -11.28379664	     -2.64592217	     -0.23887404	    -31.97684363	     12.64544547	     -0.73014758	     23.51725988	     -0.61823289	    -11.20974108	    -23.72942088	      2.29274583	     -2.22370760	     -6.32643122	     -4.46076039	      7.05030795
      4.19000000	      2.33101786	      0.44128328	    -29.61905258	      0.76008204	      0.88019165	      0.49563952	    -10.40231526	     -2.98454698	      0.16061841	    -33.88872953	     11.20821074	     -0.36624103	     23.07157845	     -0.31553849	    -11.47139900	    -23.68832184	      2.62796624	     -2.32270587	     -6.19189830	     -4.61539318	      7.09099157
      4.20000000	      2.29456439	      0.59943392	    -29.72751911	      0.76753577	      0.88123252	      0.49677051	     -9.41491630	     -3.27333984	      0.59546321	    -35.91212900	      9.73541649	      0.21315884	     22.61924873	     -0.05146431	    -11.75614307	    -23.59962427	      3.01567244	     -2.43300347	     -6.06755734	     -4.73159703	      7.07317474
      4.21000000	      2.30097432	      0.75494866	    -29.91030988	      0.77470134	      0.88228206	      0.49796159	     -8.35293639	     -3.58609801	      1.05358843	    -38.05933546	      8.39629459	      0.43336740	     22.09547577	      0.19686493	    -12.16774616	    -23.44459705	      3.37457251	     -2.43587065	     -6.00066306	     -4.87848893	      7.10601112
      4.22000000	      2.29209488	      0.89428959	    -30.10030246	      0.78161033	      0.88325796	      0.49910843	     -7.19561053	     -3.86875192	      1.47239432	    -40.28050056	      7.12101317	      0.76444532	     21.59044653	      0.42135383	    -12.56024786	    -23.27961091	      3.73751405	     -2.43579398	     -5.94714023	     -4.99882057	      7.12581707
      4.23000000	      2.30541290	      1.02106002	    -30.28560672	      0.78830989	      0.88420949	      0.50021160	     -6.00655369	     -4.15094338	      1.81583923	    -42.51630629	      5.96336295	      1.07594405	     21.06940787	      0.65232663	    -12.91808650	    -23.10381138	      4.08827592	     -2.41632511	     -5.94017595	     -5.11805511	      7.11982367
      4.24000000	      2.34522824	      1.14075512	    -30.46130912	      0.79483329	      0.88513569	      0.50126806	     -4.80900269	     -4.44666196	      2.07028637	    -44.71621408	      4.98909144	      1.30442323	     20.53633536	      0.90018255	    -13.23527290	    -22.92681237	      4.41832521	     -2.38363589	     -5.97606619	     -5.24341093	      7.08166051
      4.25000000	      2.41123115	      1.25252193	    -30.61470804	      0.80121174	      0.88604720	      0.50228081	     -3.62516304	     -4.76341497	      2.20943758	    -46.82996731	      4.24108390	      1.42078202	     19.99417103	      1.16916456	    -13.49045684	    -22.75517061	      4.73101840	     -2.35014987	     -6.05049347	     -5.37437796	      7.00697718
      4.26000000	      2.50000611	      1.35448140	    -30.73823592	      0.80746677	      0.88694485	      0.50323566	     -2.47143135	     -5.10497110	      2.22723714	    -48.81253365	      3.77754388	      1.39951360	     19.44802912	      1.45897994	    -13.67497360	    -22.59418478	      5.02285888	     -2.32775115	     -6.16077537	     -5.50649845	      6.89392734
      4.27000000	      2.60796435	      1.45289113	    -30.83099519	      0.81360496	      0.88782735	      0.50414150	     -1.35325336	     -5.48190940	      2.12208254	    -50.62999917	      3.64874587	      1.21130561	     18.90235154	      1.77332172	    -13.78724320	    -22.44089871	      5.28846733	     -2.32363972	     -6.29600038	     -5.64659170	      6.74979302
      4.28000000	      2.72672384	      1.54618383	    -30.89029147	      0.81962332	      0.88870283	      0.50498452	     -0.27383447	     -5.89031021	      1.90494851	    -52.25355240	      3.87401305	      0.78125174	     18.36141062	      2.10580225	    -13.83172558	    -22.28935133	      5.50489057	     -2.35245959	     -6.45229294	     -5.78470549	      6.57256386
      4.29000000	      2.85722035	      1.59538815	    -30.90982266	      0.82552304	      0.88962299	      0.50580340	      0.72568979	     -6.29047064	      1.57282791	    -53.64010984	      4.38238576	     -0.28753974	     17.80538832	      2.41019534	    -13.84099426	    -22.15481205	      5.74940411	     -2.44521069	     -6.64928846	     -5.88768652	      6.33311674
      4.30000000	      2.99663455	      1.62648084	    -30.90342128	      0.83128607	      0.89057382	      0.50655334	      1.66362582	     -6.70109534	      1.17407076	    -54.79143790	      5.21352699	     -1.32483251	     17.22558658	      2.72383467	    -13.76232060	    -21.98163806	      5.95010121	     -2.49948068	     -6.87569056	     -5.97421669	      6.08772570
